<?xml version="1.0" encoding="UTF-8" standalone="no"?>
<svg width="32px" height="31px" viewBox="0 0 32 31" version="1.1" xmlns="http://www.w3.org/2000/svg" xmlns:xlink="http://www.w3.org/1999/xlink">
    <!-- Generator: Sketch 3.6.1 (26313) - http://www.bohemiancoding.com/sketch -->
    <title>clock_L</title>
    <desc>Created with Sketch.</desc>
    <defs></defs>
    <g id="Page-1" stroke="none" stroke-width="1" fill="none" fill-rule="evenodd">
        <g id="MOBILE-LANDING" transform="translate(-144.000000, -1324.000000)" stroke="#EE2E24" stroke-width="0.5" fill="#EE2E24">
            <g id="3" transform="translate(22.000000, 1324.000000)">
                <path d="M138,29.0729459 C130.41875,29.0729459 124.25,22.9048209 124.25,15.3229459 C124.25,7.74107091 130.41875,1.57294591 138,1.57294591 C145.581875,1.57294591 151.75,7.74107091 151.75,15.3229459 C151.75,22.9048209 145.581875,29.0729459 138,29.0729459 L138,29.0729459 L138,29.0729459 L138,29.0729459 Z M138,0.322945908 C129.71625,0.322945908 123,7.03919591 123,15.3229459 C123,23.6066959 129.71625,30.3229459 138,30.3229459 C146.28375,30.3229459 153,23.6066959 153,15.3229459 C153,7.03919591 146.28375,0.322945908 138,0.322945908 L138,0.322945908 Z M138,16.5216959 L130.5,16.5216959 L130.5,17.7716959 L139.25,17.7716959 L139.25,5.32294591 L138,5.32294591 L138,16.5216959" id="clock_L"></path>
            </g>
        </g>
    </g>
</svg>