<?xml version="1.0" encoding="UTF-8" standalone="no"?>
<svg width="31px" height="36px" viewBox="0 0 31 36" version="1.1" xmlns="http://www.w3.org/2000/svg" xmlns:xlink="http://www.w3.org/1999/xlink">
    <!-- Generator: Sketch 3.6.1 (26313) - http://www.bohemiancoding.com/sketch -->
    <title>cupcake_2_L</title>
    <desc>Created with Sketch.</desc>
    <defs></defs>
    <g id="Page-1" stroke="none" stroke-width="1" fill="none" fill-rule="evenodd">
        <g id="MOBILE-LANDING" transform="translate(-144.000000, -757.000000)" fill="#EE2E24">
            <g id="1" transform="translate(22.000000, 757.000000)">
                <path d="M125.377327,17.5609756 L123,17.5609756 L129.565852,35.1219512 L145.571235,35.1219512 L152.268293,17.5609756 L150.811615,17.5609756 C150.811615,17.5609757 150.811615,17.5609758 150.811615,17.5609758 L140.539401,17.5609758 C140.539401,17.5609758 140.539402,17.5609758 140.539403,17.5609756 L135.00924,17.5609756 C130.547846,18.0844839 126.295551,17.6644124 125.377327,17.5609756 Z M135.00924,17.5609756 L140.539403,17.5609756 C140.54126,17.5608009 141.656333,17.4552013 144.95122,15.4659579 C148.248856,13.4750549 148.820711,11.8018489 148.820711,11.8018489 C148.820711,11.8018489 150.981053,11.8442086 151.404649,13.1997172 C151.828192,14.5550554 150.81187,17.5602206 150.811615,17.5609756 L152.268293,17.5609756 C152.268293,17.5609756 153.388646,13.1498511 152.268292,11.876721 C151.147937,10.6035909 149.265208,10.7563675 149.265208,10.7563675 C149.265208,10.7563675 150.090758,9.2258458 149.473109,7.80270739 C148.85546,6.37956899 145.496747,6.32587805 145.496747,6.32587805 C145.496747,6.32587805 145.853224,5.00182349 144.95122,3.9323951 C144.049216,2.86296674 141.597241,3.44266218 140.913483,2.35371508 C139.538503,0.163933039 135.871892,0.367633639 135.871892,0.367633639 C135.871892,0.367633639 138.650771,2.82618342 137.682515,3.5249938 C136.71426,4.22380424 134.282803,2.82118519 132.714531,3.5249938 C131.146259,4.22880244 131.441402,6.3258777 131.441402,6.3258777 C131.441402,6.3258777 128.233117,6.12217671 127.265539,7.80270739 C126.29796,9.48323808 127.67294,11.0109929 127.67294,11.0109929 C127.67294,11.0109929 125.544275,10.7263532 123.752675,12.2841223 C121.923795,13.8743061 123.143317,17.5609756 123.143317,17.5609756 L125.377327,17.5609756 C125.258135,17.5475488 125.195122,17.5394573 125.195122,17.5394573 C125.195122,17.5394573 124.386955,16.4951295 124.386955,15.1172912 C124.386955,13.7394528 124.767986,13.6472668 125.195122,13.1707317 C125.622258,12.6941966 127.4277,12.2436147 129.660748,12.5041501 C131.893796,12.7646854 136.225637,13.8344768 140.588428,12.1715687 C144.95122,10.5086607 145.197059,8.08556643 145.197059,8.08556643 C145.197059,8.08556643 146.859966,7.84800819 147.905222,8.46565967 C148.950478,9.08331115 148.475364,12.1715687 142.203825,15.5448957 C140.113983,16.6689766 137.528281,17.2653866 135.00924,17.5609756 Z M137.632777,33.6585354 L130.317073,33.6585354 L125.061682,18.9958835 L150.213001,18.9958835 L144.589486,33.6585354 L137.635489,33.6585354 C138.038983,33.6577983 138.365854,33.3249512 138.365854,32.932827 L138.365854,19.7500998 C138.365854,19.3493015 138.041075,19.0243902 137.634146,19.0243902 C137.230036,19.0243902 136.902439,19.3575407 136.902439,19.7500998 L136.902439,32.932827 C136.902439,33.3331757 137.22649,33.6578074 137.632777,33.6585354 Z M142.18441,19.0789306 C141.783311,19.0296819 141.417556,19.3204251 141.369715,19.7100582 L139.763144,32.7945233 C139.714299,33.1923341 139.997061,33.5544042 140.400956,33.6039962 C140.802055,33.6532449 141.16781,33.3625018 141.215651,32.9728687 L142.822221,19.8884036 C142.871066,19.4905927 142.588305,19.1285227 142.18441,19.0789306 Z M146.72138,19.2417386 C146.329273,19.1439753 145.930811,19.387977 145.835842,19.7688755 L142.646652,32.5600193 C142.54969,32.9489122 142.786219,33.3427434 143.181059,33.4411882 C143.573166,33.5389515 143.971628,33.2949498 144.066597,32.9140513 L147.255787,20.1229075 C147.352749,19.7340146 147.11622,19.3401834 146.72138,19.2417386 Z M128.825655,19.2119264 C128.431902,19.3028315 128.187644,19.7011365 128.275951,20.0836344 L131.241419,32.9284891 C131.331579,33.319015 131.721123,33.5625394 132.117622,33.4710005 C132.511376,33.3800953 132.755633,32.9817903 132.667327,32.5992924 L129.701858,19.7544377 C129.611698,19.3639118 129.222154,19.1203874 128.825655,19.2119264 Z M133.365333,19.0644739 C132.963436,19.106715 132.672458,19.4722836 132.713491,19.8626923 L134.091461,32.9732031 C134.133356,33.3718058 134.490319,33.6609885 134.895018,33.6184529 C135.296915,33.5762118 135.587893,33.2106433 135.546859,32.8202346 L134.168889,19.7097238 C134.126994,19.311121 133.770032,19.0219384 133.365333,19.0644739 Z M140.590463,7.86221379 C138.642486,9.24005179 133.715233,8.35163841 132.530587,8.09390053 C131.248744,7.81501604 131.141923,7.86221385 131.141923,7.86221385 C131.141923,7.86221385 128.791877,7.67175583 128.791877,8.94846262 C128.791878,10.2251694 130.317073,10.9866446 130.317073,10.9866446 C130.317073,10.9866446 137.025334,12.3387077 140.590462,10.6256867 C144.155591,8.91266583 144.455501,6.1658775 143.960355,5.26316331 C143.46521,4.36044912 141.930771,4.35519104 141.930771,4.35519104 C141.930771,4.35519104 142.53844,6.48437584 140.590463,7.86221379 Z M138.579413,4.52966648 C136.980886,5.25158175 134.299486,4.24670811 133.422874,4.78058024 C132.546263,5.31445236 133.011278,6.81205726 133.011278,6.81205726 C133.011278,6.81205726 136.516797,7.58332917 138.579413,7.11924076 C140.642028,6.65515248 140.648927,5.52762722 140.648927,4.52966648 C140.648927,3.98722078 140.459364,3.38866991 139.901186,2.80629712 C139.432459,2.31725358 138.579413,1.79150458 138.579413,1.79150458 C138.579413,1.79150458 140.17794,3.80775119 138.579413,4.52966648 Z" id="cupcake_2_L"></path>
            </g>
        </g>
    </g>
</svg>