<?xml version="1.0" encoding="UTF-8" standalone="no"?>
<svg width="32px" height="26px" viewBox="0 0 32 26" version="1.1" xmlns="http://www.w3.org/2000/svg" xmlns:xlink="http://www.w3.org/1999/xlink">
    <!-- Generator: Sketch 3.6.1 (26313) - http://www.bohemiancoding.com/sketch -->
    <title>photo_gallery_L</title>
    <desc>Created with Sketch.</desc>
    <defs></defs>
    <g id="Page-1" stroke="none" stroke-width="1" fill="none" fill-rule="evenodd">
        <g id="MOBILE-LANDING" transform="translate(-144.000000, -1047.000000)" stroke="#EE2E24" stroke-width="0.5" fill="#EE2E24">
            <g id="2" transform="translate(20.000000, 1048.000000)">
                <path d="M130.000093,5.55565844 L153.888868,5.55565844 L153.888868,23.3337654 L130.000093,23.3337654 L130.000093,23.3337654 L130.000093,5.55565844 L130.000093,5.55565844 Z M126.111132,18.8892387 L126.111132,1.11113169 L149.999907,1.11113169 L149.999907,4.44452675 L128.888961,4.44452675 L128.888961,18.8892387 L126.111132,18.8892387 L126.111132,18.8892387 L126.111132,18.8892387 L126.111132,18.8892387 Z M151.111039,4.44452675 L151.111039,0 L125,0 L125,20.0003704 L128.888961,20.0003704 L128.888961,24.4448971 L155,24.4448971 L155,4.44452675 L151.111039,4.44452675 L151.111039,4.44452675 Z" id="photo_gallery_L"></path>
            </g>
        </g>
    </g>
</svg>