<?xml version="1.0" encoding="UTF-8" standalone="no"?>
<svg width="32px" height="31px" viewBox="0 0 32 31" version="1.1" xmlns="http://www.w3.org/2000/svg" xmlns:xlink="http://www.w3.org/1999/xlink">
    <!-- Generator: Sketch 3.6.1 (26313) - http://www.bohemiancoding.com/sketch -->
    <title>Fill 83</title>
    <desc>Created with Sketch.</desc>
    <defs></defs>
    <g id="Page-1" stroke="none" stroke-width="1" fill="none" fill-rule="evenodd">
        <g id="MOBILE-LANDING" transform="translate(-144.000000, -1842.000000)" stroke="#EE2E24" stroke-width="0.5" fill="#EE2E24">
            <g id="5" transform="translate(20.000000, 1842.000000)">
                <path d="M133.570707,12.4741911 L127.698632,12.4768869 C127.698632,12.4768869 127.615737,12.4681256 127.4796,12.4681256 C127.042884,12.4681256 126.219998,12.5618038 125.624905,13.1932895 C125.165276,13.6818991 124.956353,14.3699961 125.007573,15.2380362 C125.151123,17.6831057 125.826415,27.2598526 125.831132,27.3211816 C125.831132,28.366469 126.462618,30.3444952 128.853098,30.3444952 L133.783674,30.3438213 C133.793109,30.3444952 133.815349,30.3444952 133.823437,30.3444952 C134.348439,30.3444952 135.238045,29.9933703 135.238045,28.6758094 L135.238045,14.6314864 C135.284548,14.3908884 135.386313,13.6259617 134.937466,13.054457 C134.728544,12.789597 134.322829,12.4741911 133.570707,12.4741911 L133.570707,12.4741911 Z M134.241282,14.4589567 C134.231847,14.4973715 134.227129,14.5378082 134.227129,14.5775709 L134.227129,28.6758094 C134.227129,29.2473141 133.973726,29.3335789 133.823437,29.3335789 L133.823437,29.8390371 L133.809958,29.3335789 L128.853098,29.3335789 C126.916183,29.3335789 126.84407,27.5247127 126.841375,27.2854625 C126.834635,27.1890885 126.160691,17.6184071 126.017815,15.1787291 C125.983444,14.5991371 126.099362,14.1644431 126.360852,13.8867781 C126.70726,13.5181306 127.258546,13.4790419 127.4796,13.4790419 C127.542951,13.4790419 127.584061,13.4824116 127.644716,13.4851074 L133.570707,13.4851074 C133.848372,13.4851074 134.039099,13.549806 134.141538,13.6778554 C134.318112,13.900257 134.271609,14.3282115 134.241282,14.4589567 L134.241282,14.4589567 Z M153.652896,15.5925308 C153.58348,15.5615294 153.512716,15.5338977 153.442626,15.5069399 C153.957519,15.1841207 154.469043,14.6449653 154.469043,13.7155963 C154.469043,13.0807409 154.276295,12.5773045 153.895516,12.2201141 C153.309859,11.6654581 152.489669,11.6229996 152.25244,11.6229996 L147.770711,11.6229996 C147.697252,11.6229996 147.537527,11.5428002 147.515287,11.5347129 C147.371737,10.7441764 147.207294,9.84850452 147.979634,8.31460755 C148.361761,7.55507245 148.345586,6.01645787 147.941219,4.48862639 C147.562463,3.0430161 146.881105,1.75915242 146.018457,0.87358976 C146.001608,0.855393267 145.982738,0.839892551 145.964541,0.824391834 C145.773141,0.677472001 145.08437,0.20908079 144.291138,0.348587237 C143.772875,0.439569702 143.338181,0.757671359 142.996491,1.29345699 C142.945271,1.37500424 142.917639,1.46868248 142.917639,1.5650565 L142.912248,5.18076707 C142.864398,5.64444067 142.693216,6.58728859 142.34883,7.18642498 C142.089362,7.63998942 140.864131,9.62947266 139.7191,11.3877931 C138.644159,13.0382824 138.24451,13.5477842 138.099612,13.706835 C137.629873,14.2291418 136.666133,14.2823833 136.133043,14.262165 C135.868857,14.2608171 135.620172,14.4724356 135.61141,14.7514485 C135.602649,15.0304614 135.822355,15.2636461 136.101368,15.2730813 C136.96469,15.2986912 138.144767,15.1672721 138.850386,14.3848229 C139.139508,14.0667212 139.716404,13.2438353 140.566248,11.9390794 C141.644559,10.2818506 142.923705,8.21755959 143.22698,7.68918734 C143.742547,6.79014579 143.892837,5.52717438 143.906316,5.34925312 C143.92586,5.26837982 143.928556,5.19559384 143.928556,5.14033042 L143.928556,1.72141155 C144.09165,1.50237969 144.268897,1.3790479 144.465689,1.3440028 C144.830293,1.28065205 145.211745,1.52798957 145.321598,1.60616709 C146.050806,2.36839797 146.63242,3.48107983 146.964,4.74607307 C147.338713,6.16607348 147.30232,7.41084839 147.077223,7.86036917 C146.152571,9.69686708 146.366212,10.8641384 146.521219,11.7166778 C146.629724,12.3070529 147.329278,12.6339159 147.770711,12.6339159 L152.25244,12.6339159 C152.478886,12.6339159 152.933798,12.7013103 153.202702,12.9560612 C153.374557,13.1171338 153.458127,13.3658192 153.458127,13.7155963 C153.458127,14.4346947 152.923015,14.697533 152.277376,14.9448705 L152.151349,14.9947424 C152.01319,15.0500058 151.590627,15.2184918 151.619607,15.6437506 C151.649934,16.0717052 152.046887,16.1694271 152.430362,16.2631053 C152.67096,16.3224124 152.970191,16.3958723 153.241116,16.5158344 C153.591567,16.6728634 154.055915,17.4074625 153.981107,18.1002772 C153.886081,18.9568602 153.010628,19.3113549 152.291529,19.4589487 C151.839313,19.5533008 151.673522,19.8478145 151.667457,20.0911083 C151.664087,20.2852042 151.746308,20.6336334 152.354206,20.7886405 C152.468102,20.8216638 152.823945,21.1828979 152.844837,21.6593764 C152.872469,22.3063629 152.235592,22.6918589 151.691719,22.9028035 C151.658696,22.9162823 151.628368,22.9257176 151.599388,22.9344788 C151.436294,22.9870465 151.095278,23.0962254 150.999578,23.5423765 C150.894443,24.0053762 151.300831,24.2351911 151.45449,24.321456 C151.698458,24.4596145 151.951861,24.6024907 151.951861,25.2744131 C151.951861,25.4941189 151.892554,25.7084331 151.773266,25.9119643 C151.65263,26.1188651 151.344638,26.3473322 151.177499,26.470664 C150.872877,26.6977832 150.187475,26.9821876 149.844438,27.0542997 L149.775022,27.0691264 C147.561789,27.5199951 144.799292,28.0807167 140.665992,28.0227575 C138.498587,27.9897342 137.288858,27.3595964 136.707918,27.0576694 C136.367576,26.8804221 136.121586,26.7537206 135.837856,26.8992925 C135.597258,27.0206025 135.520428,27.2989414 135.628933,27.545605 C135.734742,27.7821594 136.025212,27.8913384 136.271202,27.811139 C136.153262,27.8637066 136.044757,27.8515756 136.002972,27.8367489 C136.058235,27.8562933 136.135739,27.8994257 136.240874,27.9540152 C136.89123,28.2923351 138.245184,28.9966068 140.650491,29.0336738 C140.857392,29.0363695 141.058901,29.0377174 141.258389,29.0377174 C145.173331,29.0377174 147.826649,28.4978881 149.977205,28.0591505 L150.049991,28.0443237 C150.51636,27.9452539 151.34329,27.6076078 151.780005,27.2820928 C152.090694,27.0529518 152.438449,26.7779826 152.647372,26.4207921 C152.856968,26.0609059 152.963451,25.6747359 152.963451,25.2744131 C152.963451,24.4319828 152.658829,23.9797663 152.357576,23.716928 C153.725682,23.0746592 153.886081,22.1156367 153.852384,21.579851 C153.821382,21.0797844 153.587524,20.5756742 153.262683,20.2292669 C154.606527,19.7150475 154.923281,18.7762432 154.985284,18.210804 C155.111986,17.0576855 154.399627,15.9261332 153.652896,15.5925308 L153.652896,15.5925308 Z" id="Fill-83"></path>
            </g>
        </g>
    </g>
</svg>