<?xml version="1.0" encoding="UTF-8" standalone="no"?>
<svg width="25px" height="25px" viewBox="0 0 25 25" version="1.1" xmlns="http://www.w3.org/2000/svg" xmlns:xlink="http://www.w3.org/1999/xlink">
    <!-- Generator: Sketch 3.6.1 (26313) - http://www.bohemiancoding.com/sketch -->
    <title>facebook_L</title>
    <desc>Created with Sketch.</desc>
    <defs></defs>
    <g id="Page-1" stroke="none" stroke-width="1" fill="none" fill-rule="evenodd" fill-opacity="0.54">
        <g id="MOBILE-LANDING" transform="translate(-112.000000, -2798.000000)" fill="#000000">
            <g id="footer" transform="translate(0.000000, 2701.000000)">
                <g id="Group-3" transform="translate(112.000000, 97.000000)">
                    <path d="M12.5,25 C19.4035597,25 25,19.4035597 25,12.5 C25,5.59644029 19.4035597,0 12.5,0 C5.59644029,0 0,5.59644029 0,12.5 C0,19.4035597 5.59644029,25 12.5,25 Z M12.5,24 C18.8512749,24 24,18.8512749 24,12.5 C24,6.14872506 18.8512749,1 12.5,1 C6.14872506,1 1,6.14872506 1,12.5 C1,18.8512749 6.14872506,24 12.5,24 Z M14.004,4.431 C13.479,4.431 12.975,4.494 12.387,4.725 C11.19,5.208 10.581,6.342 10.581,8.106 L10.581,9.828 L8.901,9.828 L8.901,12.705 L10.581,12.705 L10.581,21 L14.004,21 L14.004,12.705 L16.335,12.705 L16.65,9.828 L14.004,9.828 L14.004,8.526 C14.004,8.127 14.046,7.833 14.151,7.665 C14.298,7.413 14.592,7.287 15.054,7.287 L16.608,7.287 L16.608,4.431 L14.004,4.431 Z" id="facebook_L"></path>
                </g>
            </g>
        </g>
    </g>
</svg>