<?xml version="1.0" encoding="UTF-8" standalone="no"?>
<svg width="25px" height="25px" viewBox="0 0 25 25" version="1.1" xmlns="http://www.w3.org/2000/svg" xmlns:xlink="http://www.w3.org/1999/xlink">
    <!-- Generator: Sketch 3.6.1 (26313) - http://www.bohemiancoding.com/sketch -->
    <title>tumblr_L</title>
    <desc>Created with Sketch.</desc>
    <defs></defs>
    <g id="Page-1" stroke="none" stroke-width="1" fill="none" fill-rule="evenodd" fill-opacity="0.54">
        <g id="MOBILE-LANDING" transform="translate(-148.000000, -2798.000000)" fill="#000000">
            <g id="footer" transform="translate(0.000000, 2701.000000)">
                <g id="Group-3" transform="translate(112.000000, 97.000000)">
                    <path d="M48.5,25 C55.4035597,25 61,19.4035597 61,12.5 C61,5.59644029 55.4035597,0 48.5,0 C41.5964403,0 36,5.59644029 36,12.5 C36,19.4035597 41.5964403,25 48.5,25 Z M48.5,24 C54.8512749,24 60,18.8512749 60,12.5 C60,6.14872506 54.8512749,1 48.5,1 C42.1487251,1 37,6.14872506 37,12.5 C37,18.8512749 42.1487251,24 48.5,24 Z M48.9072266,4.94189453 L48.9072266,8.79394531 L52.5234375,8.79394531 L52.5234375,11.1860352 L48.9072266,11.1860352 L48.9072266,15.0942383 C48.9072266,15.9777062 48.9540197,16.5448392 49.0476074,16.7956543 C49.1411951,17.0464694 49.3152657,17.246744 49.5698242,17.3964844 C49.90674,17.5986338 50.2923155,17.699707 50.7265625,17.699707 C51.4977252,17.699707 52.2651329,17.4488957 53.0288086,16.9472656 L53.0288086,19.3505859 C52.3774381,19.6575536 51.7878444,19.8728021 51.2600098,19.9963379 C50.7321751,20.1198737 50.1612986,20.1816406 49.5473633,20.1816406 C48.8510707,20.1816406 48.2352729,20.0936695 47.6999512,19.9177246 C47.1646295,19.7417797 46.7079283,19.4909684 46.329834,19.1652832 C45.9517396,18.839598 45.689698,18.4933287 45.5437012,18.1264648 C45.3977043,17.759601 45.324707,17.2280308 45.324707,16.5317383 L45.324707,11.1860352 L43.6401367,11.1860352 L43.6401367,9.02978516 C44.239098,8.83512272 44.751951,8.55623554 45.1787109,8.19311523 C45.6054709,7.82999493 45.9479968,7.39388275 46.2062988,6.88476562 C46.4646009,6.3756485 46.6424149,5.72803127 46.7397461,4.94189453 L48.9072266,4.94189453 Z" id="tumblr_L"></path>
                </g>
            </g>
        </g>
    </g>
</svg>