<?xml version="1.0" encoding="UTF-8" standalone="no"?>
<svg width="25px" height="25px" viewBox="0 0 25 25" version="1.1" xmlns="http://www.w3.org/2000/svg" xmlns:xlink="http://www.w3.org/1999/xlink">
    <!-- Generator: Sketch 3.6.1 (26313) - http://www.bohemiancoding.com/sketch -->
    <title>twitter_L</title>
    <desc>Created with Sketch.</desc>
    <defs></defs>
    <g id="Page-1" stroke="none" stroke-width="1" fill="none" fill-rule="evenodd" fill-opacity="0.54">
        <g id="MOBILE-LANDING" transform="translate(-184.000000, -2798.000000)" fill="#000000">
            <g id="footer" transform="translate(0.000000, 2701.000000)">
                <g id="Group-3" transform="translate(112.000000, 97.000000)">
                    <path d="M84.5,25 C91.4035597,25 97,19.4035597 97,12.5 C97,5.59644029 91.4035597,0 84.5,0 C77.5964403,0 72,5.59644029 72,12.5 C72,19.4035597 77.5964403,25 84.5,25 Z M84.5,24 C90.8512749,24 96,18.8512749 96,12.5 C96,6.14872506 90.8512749,1 84.5,1 C78.1487251,1 73,6.14872506 73,12.5 C73,18.8512749 78.1487251,24 84.5,24 Z M80.8255612,9.29845326 C83.2288941,10.5117864 85.2599874,10.4417864 85.2599874,10.4417864 C85.2599874,10.4417864 84.4899875,7.75845335 86.8699871,6.56845376 C89.2499867,5.37845399 90.8877684,7.38475509 90.8877684,7.38475509 C90.8877684,7.38475509 91.3028505,7.27081097 91.6121274,7.15686686 C91.9214043,7.04292274 92.3690419,6.8394511 92.3690419,6.8394511 L91.6356549,8.14850545 L92.7649597,8.02879892 C92.7649597,8.02879892 92.6257698,8.23231109 92.1738033,8.64682608 C91.7218368,9.06134106 91.5355592,9.27548451 91.5355592,9.27548451 C91.5355592,9.27548451 91.6970138,12.5054093 89.9955595,14.9921501 C88.2941049,17.4788909 86.0957262,18.971368 82.9022275,19.2854827 C79.7087287,19.5995973 77.6288951,18.3054828 77.6288951,18.3054828 C77.6288951,18.3054828 79.0255699,18.2257739 79.9155614,17.8854829 C80.8055528,17.5451921 82.085561,16.6488165 82.085561,16.6488165 C82.085561,16.6488165 80.2655613,16.0888166 79.6122281,15.4588167 C78.9588949,14.8288168 78.7955616,14.4554836 78.7955616,14.4554836 L80.5922279,14.4321502 C80.5922279,14.4321502 78.7022282,13.4288171 78.1655617,12.6354839 C77.6288951,11.8421507 77.5588951,11.0721508 77.5588951,11.0721508 L78.9401885,11.6299426 C78.9401885,11.6299426 77.7922285,10.0688177 77.6288951,8.85548459 C77.4655618,7.64215148 77.8388951,6.98881827 77.8388951,6.98881827 C77.8388951,6.98881827 78.4222283,8.08512014 80.8255612,9.29845326 Z" id="twitter_L"></path>
                </g>
            </g>
        </g>
    </g>
</svg>